<mxfile host="Electron" agent="Mozilla/5.0 (X11; Linux x86_64) AppleWebKit/537.36 (KHTML, like Gecko) draw.io/26.1.1 Chrome/132.0.6834.210 Electron/34.5.0 Safari/537.36" version="26.1.1">
  <diagram name="第 1 页" id="WHcZweQlWqpPfygwi5cl">
    <mxGraphModel dx="907" dy="820" grid="1" gridSize="10" guides="0" tooltips="1" connect="1" arrows="1" fold="1" page="1" pageScale="1" pageWidth="1169" pageHeight="827" math="0" shadow="0">
      <root>
        <mxCell id="0" />
        <mxCell id="1" parent="0" />
        <mxCell id="aNEZkhxEjSbQ2Ep39cGh-1" value="" style="rounded=0;whiteSpace=wrap;html=1;fillColor=none;" vertex="1" parent="1">
          <mxGeometry x="40" y="40" width="180" height="320" as="geometry" />
        </mxCell>
        <mxCell id="aNEZkhxEjSbQ2Ep39cGh-2" value="" style="rounded=1;whiteSpace=wrap;html=1;arcSize=50;" vertex="1" parent="1">
          <mxGeometry x="50" y="60" width="130" height="20" as="geometry" />
        </mxCell>
        <mxCell id="aNEZkhxEjSbQ2Ep39cGh-15" value="" style="group" vertex="1" connectable="0" parent="1">
          <mxGeometry x="50" y="290" width="160" height="20" as="geometry" />
        </mxCell>
        <mxCell id="aNEZkhxEjSbQ2Ep39cGh-10" value="" style="rounded=1;whiteSpace=wrap;html=1;arcSize=50;" vertex="1" parent="aNEZkhxEjSbQ2Ep39cGh-15">
          <mxGeometry width="160" height="20" as="geometry" />
        </mxCell>
        <mxCell id="aNEZkhxEjSbQ2Ep39cGh-11" value="" style="shape=image;verticalLabelPosition=bottom;labelBackgroundColor=default;verticalAlign=top;aspect=fixed;imageAspect=0;editableCssRules=.*;image=data:image/svg+xml,PHN2ZyB4bWxucz0iaHR0cDovL3d3dy53My5vcmcvMjAwMC9zdmciIGZpbGw9IiMwMDAwMDAiIHdpZHRoPSIxNCIgdmlld0JveD0iMjAwIC03NjAgNTYwIDU2MCIgaGVpZ2h0PSIxNCI+PHBhdGggZD0iTTQ0MC00NDBIMjAwdi04MGgyNDB2LTI0MGg4MHYyNDBoMjQwdjgwSDUyMHYyNDBoLTgwdi0yNDBaIi8+PC9zdmc+;" vertex="1" parent="aNEZkhxEjSbQ2Ep39cGh-15">
          <mxGeometry x="144" y="4" width="12" height="12" as="geometry" />
        </mxCell>
        <mxCell id="aNEZkhxEjSbQ2Ep39cGh-12" value="" style="shape=image;verticalLabelPosition=bottom;labelBackgroundColor=default;verticalAlign=top;aspect=fixed;imageAspect=0;editableCssRules=.*;image=data:image/svg+xml,PHN2ZyB4bWxucz0iaHR0cDovL3d3dy53My5vcmcvMjAwMC9zdmciIGZpbGw9IiMwMDAwMDAiIHdpZHRoPSIxNCIgdmlld0JveD0iMjAwIC01MjAgNTYwIDgwIiBoZWlnaHQ9IjIiPjxwYXRoIGQ9Ik0yMDAtNDQwdi04MGg1NjB2ODBIMjAwWiIvPjwvc3ZnPg==;" vertex="1" parent="aNEZkhxEjSbQ2Ep39cGh-15">
          <mxGeometry x="4" y="9" width="12" height="1.71" as="geometry" />
        </mxCell>
        <mxCell id="aNEZkhxEjSbQ2Ep39cGh-14" value="&lt;div style=&quot;line-height: 80%;&quot;&gt;&lt;font style=&quot;font-size: 8px;&quot;&gt;xxxx&lt;/font&gt;&lt;div&gt;PRODUCT&lt;/div&gt;&lt;/div&gt;" style="text;html=1;align=left;verticalAlign=bottom;whiteSpace=wrap;rounded=0;" vertex="1" parent="aNEZkhxEjSbQ2Ep39cGh-15">
          <mxGeometry x="20" width="60" height="20" as="geometry" />
        </mxCell>
        <mxCell id="aNEZkhxEjSbQ2Ep39cGh-16" value="" style="group" vertex="1" connectable="0" parent="1">
          <mxGeometry x="150" y="320" width="60" height="20" as="geometry" />
        </mxCell>
        <mxCell id="aNEZkhxEjSbQ2Ep39cGh-4" value="" style="rounded=1;whiteSpace=wrap;html=1;arcSize=50;" vertex="1" parent="aNEZkhxEjSbQ2Ep39cGh-16">
          <mxGeometry width="60" height="20" as="geometry" />
        </mxCell>
        <mxCell id="aNEZkhxEjSbQ2Ep39cGh-8" value="" style="shape=image;verticalLabelPosition=bottom;labelBackgroundColor=default;verticalAlign=top;aspect=fixed;imageAspect=0;editableCssRules=.*;image=data:image/svg+xml,PHN2ZyB4bWxucz0iaHR0cDovL3d3dy53My5vcmcvMjAwMC9zdmciIGZpbGw9IiMwMDAwMDAiIHdpZHRoPSIxNiIgdmlld0JveD0iMTYwIC04NDAgNjQwIDcyMCIgaGVpZ2h0PSIxOCI+PHBhdGggZD0iTTI4MC0xMjBxLTMzIDAtNTYuNS0yMy41VDIwMC0yMDB2LTUyMGgtNDB2LTgwaDIwMHYtNDBoMjQwdjQwaDIwMHY4MGgtNDB2NTIwcTAgMzMtMjMuNSA1Ni41VDY4MC0xMjBIMjgwWm00MDAtNjAwSDI4MHY1MjBoNDAwdi01MjBaTTM2MC0yODBoODB2LTM2MGgtODB2MzYwWm0xNjAgMGg4MHYtMzYwaC04MHYzNjBaTTI4MC03MjB2NTIwLTUyMFoiLz48L3N2Zz4=;" vertex="1" parent="aNEZkhxEjSbQ2Ep39cGh-16">
          <mxGeometry x="6" y="4" width="10.67" height="12" as="geometry" />
        </mxCell>
        <mxCell id="aNEZkhxEjSbQ2Ep39cGh-9" value="" style="shape=image;verticalLabelPosition=bottom;labelBackgroundColor=default;verticalAlign=top;aspect=fixed;imageAspect=0;editableCssRules=.*;image=data:image/svg+xml,PHN2ZyB4bWxucz0iaHR0cDovL3d3dy53My5vcmcvMjAwMC9zdmciIGZpbGw9IiMwMDAwMDAiIHdpZHRoPSIxOSIgdmlld0JveD0iMTIwIC04MDAgNzYwIDY0MCIgaGVpZ2h0PSIxNiI+PHBhdGggZD0iTTEyMC0xNjB2LTY0MGw3NjAgMzIwLTc2MCAzMjBabTgwLTEyMCA0NzQtMjAwLTQ3NC0yMDB2MTQwbDI0MCA2MC0yNDAgNjB2MTQwWm0wIDB2LTQwMCA0MDBaIi8+PC9zdmc+;" vertex="1" parent="aNEZkhxEjSbQ2Ep39cGh-16">
          <mxGeometry x="44" y="5" width="12" height="10.11" as="geometry" />
        </mxCell>
        <mxCell id="aNEZkhxEjSbQ2Ep39cGh-17" value="" style="group" vertex="1" connectable="0" parent="1">
          <mxGeometry x="190" y="60" width="20" height="20" as="geometry" />
        </mxCell>
        <mxCell id="aNEZkhxEjSbQ2Ep39cGh-3" value="" style="ellipse;whiteSpace=wrap;html=1;aspect=fixed;" vertex="1" parent="aNEZkhxEjSbQ2Ep39cGh-17">
          <mxGeometry width="20" height="20" as="geometry" />
        </mxCell>
        <mxCell id="aNEZkhxEjSbQ2Ep39cGh-7" value="" style="shape=image;verticalLabelPosition=bottom;labelBackgroundColor=default;verticalAlign=top;aspect=fixed;imageAspect=0;editableCssRules=.*;image=data:image/svg+xml,PHN2ZyB4bWxucz0iaHR0cDovL3d3dy53My5vcmcvMjAwMC9zdmciIGZpbGw9IiMwMDAwMDAiIHdpZHRoPSIxNiIgdmlld0JveD0iMTYwIC04MDAgNjQwIDY0MCIgaGVpZ2h0PSIxNiI+PHBhdGggZD0iTTQ4MC0xNjBxLTEzNCAwLTIyNy05M3QtOTMtMjI3cTAtMTM0IDkzLTIyN3QyMjctOTNxNjkgMCAxMzIgMjguNVQ3MjAtNjkwdi0xMTBoODB2MjgwSDUyMHYtODBoMTY4cS0zMi01Ni04Ny41LTg4VDQ4MC03MjBxLTEwMCAwLTE3MCA3MHQtNzAgMTcwcTAgMTAwIDcwIDE3MHQxNzAgNzBxNzcgMCAxMzktNDR0ODctMTE2aDg0cS0yOCAxMDYtMTE0IDE3M3QtMTk2IDY3WiIvPjwvc3ZnPg==;" vertex="1" parent="aNEZkhxEjSbQ2Ep39cGh-17">
          <mxGeometry x="4" y="4" width="12" height="12" as="geometry" />
        </mxCell>
        <mxCell id="aNEZkhxEjSbQ2Ep39cGh-18" value="" style="group" vertex="1" connectable="0" parent="1">
          <mxGeometry x="50" y="260" width="160" height="20" as="geometry" />
        </mxCell>
        <mxCell id="aNEZkhxEjSbQ2Ep39cGh-19" value="" style="rounded=1;whiteSpace=wrap;html=1;arcSize=50;" vertex="1" parent="aNEZkhxEjSbQ2Ep39cGh-18">
          <mxGeometry width="160" height="20" as="geometry" />
        </mxCell>
        <mxCell id="aNEZkhxEjSbQ2Ep39cGh-20" value="" style="shape=image;verticalLabelPosition=bottom;labelBackgroundColor=default;verticalAlign=top;aspect=fixed;imageAspect=0;editableCssRules=.*;image=data:image/svg+xml,PHN2ZyB4bWxucz0iaHR0cDovL3d3dy53My5vcmcvMjAwMC9zdmciIGZpbGw9IiMwMDAwMDAiIHdpZHRoPSIxNCIgdmlld0JveD0iMjAwIC03NjAgNTYwIDU2MCIgaGVpZ2h0PSIxNCI+PHBhdGggZD0iTTQ0MC00NDBIMjAwdi04MGgyNDB2LTI0MGg4MHYyNDBoMjQwdjgwSDUyMHYyNDBoLTgwdi0yNDBaIi8+PC9zdmc+;" vertex="1" parent="aNEZkhxEjSbQ2Ep39cGh-18">
          <mxGeometry x="144" y="4" width="12" height="12" as="geometry" />
        </mxCell>
        <mxCell id="aNEZkhxEjSbQ2Ep39cGh-21" value="" style="shape=image;verticalLabelPosition=bottom;labelBackgroundColor=default;verticalAlign=top;aspect=fixed;imageAspect=0;editableCssRules=.*;image=data:image/svg+xml,PHN2ZyB4bWxucz0iaHR0cDovL3d3dy53My5vcmcvMjAwMC9zdmciIGZpbGw9IiMwMDAwMDAiIHdpZHRoPSIxNCIgdmlld0JveD0iMjAwIC01MjAgNTYwIDgwIiBoZWlnaHQ9IjIiPjxwYXRoIGQ9Ik0yMDAtNDQwdi04MGg1NjB2ODBIMjAwWiIvPjwvc3ZnPg==;" vertex="1" parent="aNEZkhxEjSbQ2Ep39cGh-18">
          <mxGeometry x="4" y="9" width="12" height="1.71" as="geometry" />
        </mxCell>
        <mxCell id="aNEZkhxEjSbQ2Ep39cGh-22" value="&lt;div style=&quot;line-height: 80%;&quot;&gt;&lt;font style=&quot;font-size: 8px;&quot;&gt;xxxx&lt;/font&gt;&lt;div&gt;PRODUCT&lt;/div&gt;&lt;/div&gt;" style="text;html=1;align=left;verticalAlign=bottom;whiteSpace=wrap;rounded=0;" vertex="1" parent="aNEZkhxEjSbQ2Ep39cGh-18">
          <mxGeometry x="20" width="60" height="20" as="geometry" />
        </mxCell>
        <mxCell id="aNEZkhxEjSbQ2Ep39cGh-23" value="" style="endArrow=none;html=1;rounded=0;" edge="1" parent="1">
          <mxGeometry width="50" height="50" relative="1" as="geometry">
            <mxPoint x="180" y="250" as="sourcePoint" />
            <mxPoint x="260" y="250" as="targetPoint" />
          </mxGeometry>
        </mxCell>
        <mxCell id="aNEZkhxEjSbQ2Ep39cGh-24" value="" style="endArrow=none;html=1;rounded=0;" edge="1" parent="1">
          <mxGeometry width="50" height="50" relative="1" as="geometry">
            <mxPoint x="170" y="260" as="sourcePoint" />
            <mxPoint x="180" y="250" as="targetPoint" />
          </mxGeometry>
        </mxCell>
        <mxCell id="aNEZkhxEjSbQ2Ep39cGh-25" value="检测到的商品项" style="text;html=1;align=left;verticalAlign=middle;whiteSpace=wrap;rounded=0;" vertex="1" parent="1">
          <mxGeometry x="270" y="240" width="100" height="20" as="geometry" />
        </mxCell>
        <mxCell id="aNEZkhxEjSbQ2Ep39cGh-27" value="" style="endArrow=none;html=1;rounded=0;" edge="1" parent="1">
          <mxGeometry width="50" height="50" relative="1" as="geometry">
            <mxPoint x="210" y="270" as="sourcePoint" />
            <mxPoint x="260" y="270" as="targetPoint" />
          </mxGeometry>
        </mxCell>
        <mxCell id="aNEZkhxEjSbQ2Ep39cGh-28" value="商品数量增加按钮" style="text;html=1;align=left;verticalAlign=middle;whiteSpace=wrap;rounded=0;" vertex="1" parent="1">
          <mxGeometry x="270" y="260" width="100" height="20" as="geometry" />
        </mxCell>
        <mxCell id="aNEZkhxEjSbQ2Ep39cGh-29" value="" style="endArrow=none;html=1;rounded=0;" edge="1" parent="1">
          <mxGeometry width="50" height="50" relative="1" as="geometry">
            <mxPoint x="130" y="270" as="sourcePoint" />
            <mxPoint x="170" y="230" as="targetPoint" />
          </mxGeometry>
        </mxCell>
        <mxCell id="aNEZkhxEjSbQ2Ep39cGh-30" value="待定库存商品名称" style="text;html=1;align=left;verticalAlign=middle;whiteSpace=wrap;rounded=0;" vertex="1" parent="1">
          <mxGeometry x="270" y="220" width="100" height="20" as="geometry" />
        </mxCell>
        <mxCell id="aNEZkhxEjSbQ2Ep39cGh-31" value="待定库存条形码" style="text;html=1;align=left;verticalAlign=middle;whiteSpace=wrap;rounded=0;" vertex="1" parent="1">
          <mxGeometry x="270" y="200" width="100" height="20" as="geometry" />
        </mxCell>
        <mxCell id="aNEZkhxEjSbQ2Ep39cGh-32" value="" style="endArrow=none;html=1;rounded=0;" edge="1" parent="1">
          <mxGeometry width="50" height="50" relative="1" as="geometry">
            <mxPoint x="170" y="230" as="sourcePoint" />
            <mxPoint x="260" y="230" as="targetPoint" />
          </mxGeometry>
        </mxCell>
        <mxCell id="aNEZkhxEjSbQ2Ep39cGh-33" value="" style="endArrow=none;html=1;rounded=0;" edge="1" parent="1">
          <mxGeometry width="50" height="50" relative="1" as="geometry">
            <mxPoint x="90" y="260" as="sourcePoint" />
            <mxPoint x="140" y="210" as="targetPoint" />
          </mxGeometry>
        </mxCell>
        <mxCell id="aNEZkhxEjSbQ2Ep39cGh-34" value="" style="endArrow=none;html=1;rounded=0;" edge="1" parent="1">
          <mxGeometry width="50" height="50" relative="1" as="geometry">
            <mxPoint x="140" y="210" as="sourcePoint" />
            <mxPoint x="260" y="210" as="targetPoint" />
          </mxGeometry>
        </mxCell>
        <mxCell id="aNEZkhxEjSbQ2Ep39cGh-35" value="" style="endArrow=none;html=1;rounded=0;" edge="1" parent="1">
          <mxGeometry width="50" height="50" relative="1" as="geometry">
            <mxPoint x="210" y="330" as="sourcePoint" />
            <mxPoint x="260" y="330" as="targetPoint" />
          </mxGeometry>
        </mxCell>
        <mxCell id="aNEZkhxEjSbQ2Ep39cGh-36" value="" style="endArrow=none;html=1;rounded=0;" edge="1" parent="1">
          <mxGeometry width="50" height="50" relative="1" as="geometry">
            <mxPoint x="170" y="330" as="sourcePoint" />
            <mxPoint x="190" y="350" as="targetPoint" />
          </mxGeometry>
        </mxCell>
        <mxCell id="aNEZkhxEjSbQ2Ep39cGh-37" value="" style="endArrow=none;html=1;rounded=0;" edge="1" parent="1">
          <mxGeometry width="50" height="50" relative="1" as="geometry">
            <mxPoint x="190" y="350" as="sourcePoint" />
            <mxPoint x="260" y="350" as="targetPoint" />
          </mxGeometry>
        </mxCell>
        <mxCell id="aNEZkhxEjSbQ2Ep39cGh-38" value="发送库存信息按钮" style="text;html=1;align=left;verticalAlign=middle;whiteSpace=wrap;rounded=0;" vertex="1" parent="1">
          <mxGeometry x="270" y="320" width="100" height="20" as="geometry" />
        </mxCell>
        <mxCell id="aNEZkhxEjSbQ2Ep39cGh-39" value="清空待定库存按钮" style="text;html=1;align=left;verticalAlign=middle;whiteSpace=wrap;rounded=0;" vertex="1" parent="1">
          <mxGeometry x="270" y="340" width="100" height="20" as="geometry" />
        </mxCell>
        <mxCell id="aNEZkhxEjSbQ2Ep39cGh-40" value="" style="shape=image;verticalLabelPosition=bottom;labelBackgroundColor=default;verticalAlign=top;aspect=fixed;imageAspect=0;editableCssRules=.*;image=data:image/svg+xml,PHN2ZyB4bWxucz0iaHR0cDovL3d3dy53My5vcmcvMjAwMC9zdmciIGZpbGw9IiMwMDAwMDAiIHdpZHRoPSIxMiIgdmlld0JveD0iMjQwIC02NDAgNDgwIDI5NiIgaGVpZ2h0PSI3LjQiPjxwYXRoIGQ9Ik00ODAtMzQ0IDI0MC01ODRsNTYtNTYgMTg0IDE4NCAxODQtMTg0IDU2IDU2LTI0MCAyNDBaIi8+PC9zdmc+;" vertex="1" parent="1">
          <mxGeometry x="166" y="68" width="8" height="4.67" as="geometry" />
        </mxCell>
        <mxCell id="aNEZkhxEjSbQ2Ep39cGh-41" value="xxxx" style="text;html=1;align=left;verticalAlign=middle;whiteSpace=wrap;rounded=0;" vertex="1" parent="1">
          <mxGeometry x="60" y="60" width="30" height="20" as="geometry" />
        </mxCell>
        <mxCell id="aNEZkhxEjSbQ2Ep39cGh-42" value="" style="endArrow=none;html=1;rounded=0;" edge="1" parent="1">
          <mxGeometry width="50" height="50" relative="1" as="geometry">
            <mxPoint x="210" y="70" as="sourcePoint" />
            <mxPoint x="260" y="70" as="targetPoint" />
          </mxGeometry>
        </mxCell>
        <mxCell id="aNEZkhxEjSbQ2Ep39cGh-43" value="刷新审阅批次按钮" style="text;html=1;align=left;verticalAlign=middle;whiteSpace=wrap;rounded=0;" vertex="1" parent="1">
          <mxGeometry x="270" y="60" width="100" height="20" as="geometry" />
        </mxCell>
        <mxCell id="aNEZkhxEjSbQ2Ep39cGh-44" value="选择审阅批次按钮" style="text;html=1;align=left;verticalAlign=middle;whiteSpace=wrap;rounded=0;" vertex="1" parent="1">
          <mxGeometry x="270" y="80" width="100" height="20" as="geometry" />
        </mxCell>
        <mxCell id="aNEZkhxEjSbQ2Ep39cGh-45" value="" style="endArrow=none;html=1;rounded=0;" edge="1" parent="1">
          <mxGeometry width="50" height="50" relative="1" as="geometry">
            <mxPoint x="180" y="90" as="sourcePoint" />
            <mxPoint x="260" y="90" as="targetPoint" />
          </mxGeometry>
        </mxCell>
        <mxCell id="aNEZkhxEjSbQ2Ep39cGh-46" value="" style="endArrow=none;html=1;rounded=0;" edge="1" parent="1">
          <mxGeometry width="50" height="50" relative="1" as="geometry">
            <mxPoint x="170" y="80" as="sourcePoint" />
            <mxPoint x="180" y="90" as="targetPoint" />
          </mxGeometry>
        </mxCell>
        <mxCell id="aNEZkhxEjSbQ2Ep39cGh-47" value="相机取景器" style="text;html=1;align=left;verticalAlign=middle;whiteSpace=wrap;rounded=0;" vertex="1" parent="1">
          <mxGeometry x="270" y="130" width="100" height="20" as="geometry" />
        </mxCell>
        <mxCell id="aNEZkhxEjSbQ2Ep39cGh-48" value="" style="endArrow=none;html=1;rounded=0;" edge="1" parent="1">
          <mxGeometry width="50" height="50" relative="1" as="geometry">
            <mxPoint x="210" y="140" as="sourcePoint" />
            <mxPoint x="260" y="140" as="targetPoint" />
          </mxGeometry>
        </mxCell>
      </root>
    </mxGraphModel>
  </diagram>
</mxfile>
